# xmcd
#
# Track frame offsets: 
#        150
#        18331
#        31233
#        46443
#        60335
#        73564
#        88629
#        107398
#        120556
#        136950
#        154387
#        174848
#
# Disc length: 2520 seconds
#
# Revision: 0
# Processed by: cddbd v1.5.2PL0 Copyright (c) Steve Scherf et al.
# Submitted via: ExactAudioCopyFreeDBPlugin 1.0
#
DISCID=8f09d60c
DTITLE=Tommy Brown - Rockin' My Blues Away
DYEAR=2009
DGENRE=Blues
TTITLE0=Southern Women
TTITLE1=House Near The Railroad Track
TTITLE2=Leave It Alone
TTITLE3=Love Of Mine
TTITLE4=Atlanta Boogie
TTITLE5=Night Work
TTITLE6=Cheaper To Keep Her
TTITLE7=How Much Do You Think I Can Stand
TTITLE8=I'll Die Happy
TTITLE9=Do Fries Come With That Shake
TTITLE10=Weepin' And Cryin' Blues
TTITLE11=Rock My Blues Away
EXTD=
EXTT0=
EXTT1=
EXTT2=
EXTT3=
EXTT4=
EXTT5=
EXTT6=
EXTT7=
EXTT8=
EXTT9=
EXTT10=
EXTT11=
PLAYORDER=
